<svg width="620" height="660" viewBox="0 0 620 660" fill="none" xmlns="http://www.w3.org/2000/svg">
<path d="M270.01 51.5478V0L619.42 349.466L309.729 659.157L0 349.466L127.146 222.271H178.743L51.5907 349.466L309.729 607.603L567.872 349.466L270.01 51.5478Z" fill="#F4F4F4" fill-opacity="0.5"/>
<path d="M476.601 349.441L309.73 516.306L142.859 349.441L270.013 222.294H218.458L91.3118 349.441L309.73 567.859L528.15 349.441L270.013 91.2969V142.845L476.601 349.441Z" fill="#F4F4F4" fill-opacity="0.5"/>
<path fill-rule="evenodd" clip-rule="evenodd" d="M436.876 349.453L309.729 222.306L182.57 349.453L309.723 476.592L436.876 349.453ZM309.729 273.853L385.327 349.453L309.729 425.008L234.125 349.453L309.729 273.853Z" fill="#F4F4F4" fill-opacity="0.5"/>
</svg>
