<svg xmlns="http://www.w3.org/2000/svg" width="212.679" height="43.06" viewBox="0 0 212.679 43.06"><g transform="translate(-85.676 -177.215)"><g transform="translate(85.676 177.215)"><path d="M65.164,139.182l-8.306-8.306-8.306,8.306,8.306,8.306Zm-8.306-4.937,4.937,4.937-4.937,4.938-4.938-4.938Z" transform="translate(-36.625 -116.355)" fill="#ff8200"/><path d="M61.143,129.688l-10.9,10.9-10.9-10.9,8.307-8.306H44.279l-8.306,8.306,14.269,14.269,14.269-14.269L47.648,112.824v3.369Z" transform="translate(-30.009 -106.861)" fill="#ff8200"/><path d="M41.032,100.247v3.368L60.49,123.074,43.626,139.938,26.763,123.074l8.306-8.306H31.7l-8.307,8.306,20.233,20.233,20.233-20.233Z" transform="translate(-23.393 -100.247)" fill="#ff8200"/></g><path d="M224.687,124.7a8.219,8.219,0,0,1,7.883-6.982c3.379,0,5.41,1.988,5.41,5.327-.047.4-.072.791-.1,1.179-.024.166-.047.327-.074.485H224.687Zm-63.415-2.634c-.4-5.912-4.825-9.312-12.144-9.312a49.982,49.982,0,0,0-9.165,1.089l-2,6.011a36.436,36.436,0,0,1,10.017-1.955c3.79,0,6.779,1.89,6.241,5.979-1.935-.141-3.8-.242-4.873-.242-10.111,0-15.891,3.83-15.474,10.238.316,4.854,4.31,7.715,9.941,8.115,6.362.456,12.143-.887,15.28-2.844.635-4.318,1.269-8.631,1.93-12.961A20.373,20.373,0,0,0,161.272,122.065ZM152.6,135.888c-6.388,1.8-10.927.823-11.142-2.52-.221-3.5,2.671-5.2,8.888-5.2a14.017,14.017,0,0,1,3.282.35Q153.119,132.2,152.6,135.888ZM181.8,112.8c-5.364,0-9.289,1.284-12.3,4.037a16.406,16.406,0,0,0-5.359,12.057,12.872,12.872,0,0,0,3.623,9.421,13.937,13.937,0,0,0,9.57,3.71,38.917,38.917,0,0,0,7.884-.67l.09-.017,2.042-6.137a20.02,20.02,0,0,1-7.392,1.126c-4.432-.335-7.763-3.468-7.763-8.092,0-5.7,4.208-9.822,10.283-9.822a17.556,17.556,0,0,1,6.361,1.369c.55-1.665,1.787-5.371,1.787-5.371A23.045,23.045,0,0,0,181.8,112.8Zm78.7-.015c-7.22,0-12.092,3.445-12.092,8.573,0,3.744,2.079,5.546,6.166,7.747l.81.432c2.5,1.333,4.012,2.139,4.012,3.829,0,2.01-2.127,3.157-5.872,3.157a16.417,16.417,0,0,1-7.556-1.8l-1.847,5.551A30.671,30.671,0,0,0,254.3,142.05c7.616,0,12.758-3.61,12.758-8.96,0-3.737-2.176-5.684-5.947-7.749-.507-.278-1.031-.54-1.521-.813-2.449-1.291-3.817-2.008-3.817-3.6,0-1.817,1.884-2.947,4.894-2.947a17.208,17.208,0,0,1,7.245,1.756l1.789-5.37A30.763,30.763,0,0,0,260.495,112.782Zm-52.423.015c-5.365,0-9.289,1.284-12.3,4.037a16.407,16.407,0,0,0-5.358,12.057,12.872,12.872,0,0,0,3.623,9.421,13.935,13.935,0,0,0,9.57,3.71,38.929,38.929,0,0,0,7.885-.67l.09-.017,2.04-6.137a20.008,20.008,0,0,1-7.39,1.126c-4.433-.335-7.763-3.468-7.763-8.092,0-5.7,4.208-9.822,10.282-9.822a17.557,17.557,0,0,1,6.362,1.369c.551-1.665,1.787-5.371,1.787-5.371A23.046,23.046,0,0,0,208.071,112.8Zm76.887-.015c-7.22,0-12.093,3.445-12.093,8.573,0,3.744,2.08,5.546,6.167,7.747l.809.432c2.5,1.333,4.012,2.139,4.012,3.829,0,2.01-2.127,3.157-5.872,3.157a16.417,16.417,0,0,1-7.556-1.8l-1.848,5.551a30.673,30.673,0,0,0,10.183,1.781c7.616,0,12.758-3.61,12.758-8.96,0-3.737-2.176-5.684-5.947-7.749-.508-.278-1.031-.54-1.521-.813-2.449-1.291-3.817-2.008-3.817-3.6,0-1.817,1.884-2.947,4.895-2.947a17.21,17.21,0,0,1,7.245,1.756l1.788-5.37A30.759,30.759,0,0,0,284.958,112.782Zm-44.382,22.136a29.482,29.482,0,0,1-8.986,1.793c-5.015,0-7.881-2.352-7.881-6.454,0-.294,0-.589.024-.889H243.98a35.575,35.575,0,0,0,.588-5.445c0-6.922-4.406-11.224-11.457-11.224-5.047,0-8.752,1.477-11.948,4.806a17.154,17.154,0,0,0-4.726,11.775c0,7.926,5.215,12.851,13.59,12.851a31.057,31.057,0,0,0,8.57-1.259C239.257,138.879,239.916,136.9,240.577,134.918Z" transform="translate(4.191 74.683)" fill="#fff" fill-rule="evenodd"/></g></svg>