<svg xmlns="http://www.w3.org/2000/svg" width="19.979" height="18.569" viewBox="0 0 19.979 18.569"><g transform="translate(0 -18.065)"><g transform="translate(6.438 32.962)"><path d="M171.415,399.834h-5.772a.666.666,0,0,0,0,1.332h5.772a.666.666,0,0,0,0-1.332Z" transform="translate(-164.977 -399.834)" fill="#f4f4f4"/></g><g transform="translate(6.438 30.861)"><path d="M171.415,346.006h-5.772a.666.666,0,1,0,0,1.332h5.772a.666.666,0,0,0,0-1.332Z" transform="translate(-164.977 -346.006)" fill="#f4f4f4"/></g><g transform="translate(0 18.065)"><g transform="translate(0 0)"><path d="M18.425,22.585H16.306V18.731a.666.666,0,0,0-.666-.666H4.339a.666.666,0,0,0-.666.666v3.854H1.554A1.556,1.556,0,0,0,0,24.139v6.7a1.556,1.556,0,0,0,1.554,1.554H3.673v3.575a.666.666,0,0,0,.666.666h11.3a.666.666,0,0,0,.666-.666V32.393h2.119a1.556,1.556,0,0,0,1.554-1.554v-6.7A1.556,1.556,0,0,0,18.425,22.585ZM5,19.4h9.969v3.188H5Zm9.969,15.9H5V29.853h9.969C14.974,30.018,14.974,35.177,14.974,35.3ZM15.64,26.5h-1.7a.666.666,0,0,1,0-1.332h1.7a.666.666,0,0,1,0,1.332Z" transform="translate(0 -18.065)" fill="#f4f4f4"/></g></g></g></svg>